<?xml version="1.0" encoding="UTF-8"?>
<svg xmlns="http://www.w3.org/2000/svg" xmlns:xlink="http://www.w3.org/1999/xlink" width="568pt" height="150pt" viewBox="0 0 568 150" version="1.1">
<g id="surface1">
<path style=" stroke:none;fill-rule:nonzero;fill:rgb(10.984802%,0%,36.863708%);fill-opacity:1;" d="M 73.183594 123.902344 C 82.121094 123.058594 91.101563 123.449219 100.070313 123.648438 C 80.382813 125.683594 59.78125 126.597656 41.820313 135.871094 C 35.839844 138.875 30.964844 143.792969 28.175781 149.90625 C 21.015625 147.894531 13.96875 145.5625 6.878906 143.324219 C 26.164063 129.828125 50.144531 125.511719 73.183594 123.902344 Z M 102.589844 109.546875 C 107.386719 101.507813 113.460938 94.203125 119.144531 86.75 C 120 99.054688 114.664063 110.808594 107.683594 120.621094 C 105.792969 117.027344 103.796875 113.433594 102.589844 109.546875 Z M 103.5 94.269531 C 106.851563 89.886719 109.679688 85.085938 113.460938 81.039063 C 111.328125 90.179688 106.234375 98.410156 100.042969 105.351563 C 97.242188 101.0625 101.15625 97.550781 103.5 94.269531 Z M 93.957031 91.761719 C 98.285156 85.984375 102.132813 79.832031 106.839844 74.363281 C 106.261719 82.875 101.71875 90.300781 96.878906 97.070313 C 95.902344 95.300781 94.921875 93.53125 93.957031 91.761719 Z M 113.554688 74.875 C 113.886719 72.945313 115.683594 71.722656 116.742188 70.183594 C 117.199219 74.203125 117.722656 78.199219 118.203125 82.207031 C 116.460938 79.925781 114.0625 77.808594 113.554688 74.875 Z M 90.835938 82.957031 C 94.117188 78.078125 97.429688 73.160156 101.476563 68.871094 C 100.605469 76.082031 96.839844 82.539063 91.761719 87.59375 C 91.332031 86.066406 91.023438 84.523438 90.835938 82.957031 Z M 86.238281 74.792969 C 89.144531 70.707031 91.90625 66.496094 95.351563 62.824219 C 95.417969 68.988281 92.578125 74.566406 88.824219 79.269531 C 87.941406 77.78125 87.082031 76.292969 86.238281 74.792969 Z M 104.988281 64.3125 C 105.792969 63.5625 107.386719 62.058594 108.191406 61.308594 C 108.339844 65.167969 108.726563 69.015625 109.0625 72.863281 C 107.226563 70.382813 103.863281 67.785156 104.988281 64.3125 Z M 82.257813 65.597656 C 84.589844 62.503906 86.882813 59.378906 89.589844 56.605469 C 89.898438 61.914063 87.523438 66.683594 84.359375 70.773438 C 83.652344 69.042969 82.941406 67.328125 82.257813 65.597656 Z M 109.800781 59.460938 C 108.421875 56.953125 111.460938 55.425781 112.75 53.710938 C 113.257813 57.625 113.714844 61.550781 114.238281 65.464844 C 112.683594 63.535156 110.804688 61.765625 109.800781 59.460938 Z M 96.222656 56.21875 C 97.09375 54.730469 98.246094 53.441406 99.347656 52.128906 C 99.921875 55.976563 100.429688 59.835938 100.875 63.695313 C 98.929688 61.496094 96.8125 59.207031 96.222656 56.21875 Z M 77.738281 56.070313 C 79.09375 53.738281 80.460938 51.433594 81.921875 49.179688 C 83.636719 53.496094 82.726563 58.039063 80.460938 61.953125 C 79.523438 59.996094 78.625 58.039063 77.738281 56.070313 Z M 102.296875 51.914063 C 101.476563 49.570313 104.222656 48.203125 105.417969 46.648438 C 105.632813 50.480469 106.035156 54.3125 106.355469 58.148438 C 104.867188 56.175781 103.03125 54.328125 102.296875 51.914063 Z M 86.933594 48.992188 C 86.183594 46.566406 88.8125 45.09375 89.964844 43.324219 C 90.378906 47.289063 90.835938 51.257813 91.304688 55.226563 C 89.734375 53.242188 87.941406 51.351563 86.933594 48.992188 Z M 93.316406 42.839844 C 93.972656 41.21875 95.484375 40.1875 96.585938 38.898438 C 96.960938 42.773438 97.375 46.648438 97.804688 50.519531 C 96.035156 48.203125 93.085938 46.070313 93.316406 42.839844 Z M 71.066406 40.039063 C 72.054688 38.671875 73.117188 37.371094 74.269531 36.140625 C 74.722656 39.972656 75.179688 43.804688 75.5 47.652344 C 73.707031 45.332031 71.613281 43.027344 71.066406 40.039063 Z M 77.902344 37.410156 C 78.960938 35.992188 80.125 34.652344 81.425781 33.433594 C 81.652344 37.277344 82.027344 41.125 82.296875 44.972656 C 80.433594 42.734375 78.144531 40.496094 77.902344 37.410156 Z M 84.171875 34.773438 C 84.574219 32.976563 86.238281 31.851563 87.296875 30.429688 C 87.832031 34.304688 88.328125 38.191406 88.785156 42.0625 C 86.949219 39.878906 84.546875 37.773438 84.171875 34.773438 Z M 39.753906 46.671875 C 41.203125 40.214844 44.902344 34.636719 47.421875 28.59375 C 51.039063 28.605469 54.660156 28.605469 58.292969 28.660156 C 60.8125 34.730469 64.175781 40.429688 66.28125 46.671875 C 65.316406 48.441406 64.375 50.226563 63.464844 52.023438 C 66.402344 52.945313 69.363281 53.789063 72.257813 54.824219 C 70.957031 57.421875 69.5625 59.96875 68.222656 62.542969 C 70.929688 63.65625 73.613281 64.808594 76.277344 66 C 75.300781 68.761719 74.578125 71.832031 72.324219 73.882813 C 66.308594 74.914063 60.101563 74.164063 54.054688 75.15625 C 63.8125 76.578125 73.613281 77.796875 83.328125 79.429688 C 84.949219 83.304688 86.597656 87.164063 88.222656 91.039063 C 75.125 91.132813 61.976563 91.023438 48.9375 92.484375 C 63.144531 92.96875 77.324219 94.578125 91.144531 97.96875 C 94.265625 105.460938 97.523438 112.898438 100.539063 120.429688 C 75.339844 119.921875 49.578125 121.195313 25.453125 129.117188 C 17.519531 131.621094 10.363281 135.910156 3.433594 140.414063 C -0.777344 139.476563 0.0546875 134.332031 0.710938 131.152344 C 2.535156 124.785156 5.324219 118.757813 7.507813 112.496094 C 8.808594 115.285156 9.839844 118.527344 13.109375 119.507813 C 13.617188 114.265625 7.386719 111.035156 8.726563 105.808594 C 11.246094 99.226563 14.773438 93.089844 17.410156 86.5625 C 18.617188 89.269531 19.890625 91.988281 21.863281 94.253906 C 22.53125 92.125 24.554688 89.792969 22.8125 87.660156 C 20.964844 84.753906 20.171875 80.664063 22.828125 77.957031 C 26.367188 75.4375 30.910156 75.074219 34.929688 73.65625 C 33.066406 71.105469 30.910156 68.800781 28.859375 66.417969 C 31.648438 64.996094 34.515625 63.722656 37.398438 62.503906 C 36.015625 59.914063 34.648438 57.328125 33.441406 54.660156 C 36.230469 53.777344 39.042969 53.015625 41.847656 52.183594 C 41.136719 50.347656 40.277344 48.578125 39.753906 46.671875 Z M 78.019531 25.214844 C 78.019531 23.042969 80.300781 21.863281 81.453125 20.296875 C 81.71875 24.183594 82.054688 28.070313 82.269531 31.96875 C 80.636719 29.894531 78.597656 27.910156 78.019531 25.214844 Z M 78.007813 0.203125 C 85.660156 17.910156 97.84375 33.792969 113.660156 44.945313 C 124.488281 52.34375 131.3125 65.585938 129.933594 78.761719 C 129.488281 84.953125 127.105469 90.730469 124.71875 96.386719 C 126.730469 88.34375 129.273438 79.914063 127.15625 71.617188 C 125.5625 62.742188 120.28125 54.902344 113.246094 49.394531 C 99.613281 38.511719 87.699219 25.308594 79.292969 9.949219 C 75.957031 19.117188 72.726563 28.3125 69.203125 37.398438 C 67.78125 34.355469 66.425781 31.285156 65.019531 28.230469 C 71.707031 20.214844 76.414063 10.566406 78.007813 0.203125 "/>
<path style=" stroke:none;fill-rule:nonzero;fill:rgb(94.53125%,20.776367%,0%);fill-opacity:1;" d="M 533.152344 104.789063 C 538.203125 102.871094 543.660156 102.738281 548.980469 102.121094 C 554.421875 101.425781 558.054688 107.617188 556.636719 112.417969 C 555.738281 116.425781 552.035156 118.664063 548.996094 120.925781 C 554.4375 124.480469 560.613281 126.652344 567.101563 127.214844 C 563.898438 128.207031 560.601563 129.707031 557.171875 129.0625 C 551.78125 128.085938 546.996094 125.242188 542.160156 122.832031 C 544.988281 120.875 548.460938 119.855469 550.898438 117.347656 C 553.511719 113.929688 551.945313 108.863281 548.914063 106.25 C 546.59375 104.238281 543.324219 104.535156 540.496094 104.066406 C 539.773438 114.011719 540.09375 123.984375 539.839844 133.941406 C 538.230469 134.773438 536.625 135.605469 535.015625 136.421875 C 535.027344 127.722656 535.378906 119.011719 535.269531 110.3125 C 535.28125 108.261719 533.941406 106.585938 533.152344 104.789063 Z M 520.863281 106.503906 C 523.394531 104.375 526.035156 102.378906 528.957031 100.824219 C 529.304688 109.546875 529.132813 118.300781 528.78125 127.039063 C 527.269531 128.109375 525.753906 129.171875 524.238281 130.230469 C 524.253906 123.164063 524.332031 116.101563 524.519531 109.027344 C 523.300781 108.179688 522.082031 107.351563 520.863281 106.503906 Z M 492.621094 124.023438 C 496.898438 122.84375 501.1875 121.691406 505.488281 120.644531 C 503.53125 118.046875 501.574219 115.445313 499.617188 112.859375 C 497.472656 116.691406 495.058594 120.378906 492.621094 124.023438 Z M 494.324219 112.859375 C 495.058594 108.796875 493.53125 103.8125 497.769531 101.292969 C 504.226563 111.050781 510.046875 122.269531 521.089844 127.550781 C 515.714844 130.726563 510.582031 126.90625 507.269531 122.75 C 499.710938 123.421875 492.257813 125.324219 485.703125 129.238281 C 489.175781 124.171875 493.34375 119.132813 494.324219 112.859375 "/>
<path style=" stroke:none;fill-rule:nonzero;fill:rgb(76.951599%,61.521912%,0.784302%);fill-opacity:1;" d="M 326.542969 80.746094 C 331.972656 77.582031 339.679688 75.15625 345.144531 79.484375 C 349.851563 85.15625 345.121094 93.425781 338.671875 95.097656 C 339.007813 90.421875 342.183594 82.742188 335.429688 81.386719 C 330.980469 80.449219 330.683594 85.675781 330.296875 88.734375 C 331.703125 86.992188 332.964844 85.085938 334.746094 83.695313 C 336.152344 83.867188 337.546875 84.121094 338.929688 84.429688 C 336.03125 86.816406 333.527344 89.578125 331.703125 92.875 C 330.296875 95.808594 326.648438 94.066406 324.144531 94.335938 C 324.023438 89.925781 321.382813 83.183594 326.542969 80.746094 "/>
<path style=" stroke:none;fill-rule:nonzero;fill:rgb(76.951599%,61.521912%,0.784302%);fill-opacity:1;" d="M 359.742188 38.871094 C 363.402344 38.886719 367.046875 38.898438 370.707031 38.941406 C 369.835938 41.097656 368.964844 43.257813 368.105469 45.414063 C 365.210938 44.785156 362.261719 44.367188 359.300781 44.207031 C 361.914063 46.285156 365.53125 47.476563 367.207031 50.546875 C 368.09375 56.902344 367.597656 63.402344 367.542969 69.808594 C 367.878906 74.753906 360.867188 76.75 357.746094 73.507813 C 352.894531 68.988281 351.953125 61.082031 355.789063 55.613281 C 356.644531 56.203125 358.375 57.410156 359.234375 58.011719 C 357.8125 62.355469 354.675781 67.757813 359.328125 71.324219 C 359.851563 65.277344 359.554688 59.207031 359.660156 53.148438 C 358.199219 52.140625 356.742188 51.152344 355.292969 50.160156 C 356.765625 46.394531 358.199219 42.613281 359.742188 38.871094 "/>
<path style=" stroke:none;fill-rule:nonzero;fill:rgb(76.951599%,61.521912%,0.784302%);fill-opacity:1;" d="M 292.417969 70.960938 C 292.886719 66.84375 292.847656 62.703125 292.445313 58.589844 C 290.421875 62.464844 288.664063 67.476563 292.417969 70.960938 "/>
<path style=" stroke:none;fill-rule:nonzero;fill:rgb(76.951599%,61.521912%,0.784302%);fill-opacity:1;" d="M 292.96875 38.886719 C 296.828125 38.886719 300.6875 38.898438 304.5625 38.941406 C 303.796875 41.125 303.035156 43.324219 302.296875 45.519531 C 299.054688 44.691406 295.742188 44.222656 292.40625 44.222656 C 294.886719 45.988281 297.804688 47.238281 299.882813 49.527344 C 300.890625 51.957031 300.957031 54.648438 301.464844 57.207031 C 303.878906 56.820313 306.277344 56.351563 308.691406 55.921875 C 309.144531 61.054688 304.761719 66.753906 309.425781 70.894531 C 309.988281 64.980469 309.707031 59.058594 309.828125 53.148438 C 308.355469 52.140625 306.878906 51.164063 305.421875 50.171875 C 307.214844 46.527344 307.859375 42.089844 310.578125 39.019531 C 314.15625 38.699219 317.765625 38.886719 321.355469 38.914063 C 320.726563 41.085938 320.097656 43.257813 319.480469 45.429688 C 316.234375 44.742188 312.9375 44.273438 309.628906 44.246094 C 312.605469 46.726563 317.882813 48.160156 317.832031 52.828125 C 318.03125 58.441406 318.046875 64.070313 317.816406 69.675781 C 317.789063 74.472656 310.484375 76.644531 307.550781 72.957031 C 303.449219 69.246094 303.972656 63.214844 302.644531 58.292969 C 299.65625 62.300781 301.304688 67.449219 300.378906 71.992188 C 298.289063 74.78125 293.773438 75.945313 291.039063 73.453125 C 286.105469 68.921875 285.128906 61.164063 288.824219 55.558594 C 290.355469 56.296875 291.867188 57.035156 293.410156 57.773438 C 293.222656 54.394531 291.414063 51.765625 288.707031 49.878906 C 290.058594 46.191406 291.480469 42.519531 292.96875 38.886719 "/>
<path style=" stroke:none;fill-rule:nonzero;fill:rgb(76.951599%,61.521912%,0.784302%);fill-opacity:1;" d="M 340.242188 43.109375 C 339.53125 45.320313 340.269531 46.058594 342.4375 45.347656 C 343.136719 43.136719 342.398438 42.398438 340.242188 43.109375 "/>
<path style=" stroke:none;fill-rule:nonzero;fill:rgb(76.951599%,61.521912%,0.784302%);fill-opacity:1;" d="M 323.472656 32.546875 C 325.472656 30.039063 328.820313 31.394531 331.460938 31.609375 C 331.691406 37.0625 330.429688 42.425781 330.09375 47.851563 C 331.058594 48.066406 332.988281 48.511719 333.953125 48.738281 C 333.765625 46.273438 332.882813 43.6875 333.753906 41.273438 C 336.179688 37.492188 342.183594 37.453125 344.890625 40.9375 C 347.453125 43.042969 345.386719 46.230469 344.558594 48.644531 C 347.332031 52.558594 350.253906 56.925781 349.902344 61.96875 C 349.488281 67.382813 346.367188 73.304688 340.695313 74.621094 C 338.070313 76.09375 336.863281 72.367188 335.148438 71.066406 C 333.902344 72.472656 332.65625 73.894531 331.40625 75.289063 C 329.195313 73.789063 325.136719 73.292969 325.324219 69.929688 C 325.109375 65.128906 325.003906 60.304688 323.5 55.707031 C 323.660156 52.183594 327.335938 50.867188 330.347656 51.859375 C 335.363281 55.921875 332.589844 63.199219 333.3125 68.761719 C 334.746094 67.394531 336.164063 66.015625 337.585938 64.632813 C 338.914063 66.335938 340.226563 68.050781 341.59375 69.726563 C 346.40625 64.164063 342.640625 56.164063 337.707031 52.140625 C 333.980469 51.230469 329.988281 51.648438 326.367188 50.265625 C 324.707031 49.488281 322.574219 48 322.925781 45.910156 C 323.515625 41.472656 323.714844 37.011719 323.472656 32.546875 "/>
<path style=" stroke:none;fill-rule:nonzero;fill:rgb(10.984802%,0%,36.863708%);fill-opacity:1;" d="M 206.839844 99.5625 C 209.574219 97.484375 212.992188 96.480469 215.980469 98.773438 C 216.515625 102.578125 217.804688 107.953125 214.117188 110.582031 C 212.269531 112.230469 209.613281 111.933594 207.347656 112.390625 C 208.3125 109.964844 209.519531 107.589844 210.015625 105.003906 C 209.359375 102.980469 207.886719 101.386719 206.839844 99.5625 "/>
<path style=" stroke:none;fill-rule:nonzero;fill:rgb(10.984802%,0%,36.863708%);fill-opacity:1;" d="M 203.78125 82.632813 C 203.085938 84.203125 201.867188 87.847656 204.132813 88.453125 C 205.164063 87.417969 206.140625 80.851563 203.78125 82.632813 "/>
<path style=" stroke:none;fill-rule:nonzero;fill:rgb(10.984802%,0%,36.863708%);fill-opacity:1;" d="M 199.628906 77.261719 C 202.777344 77.5 205.621094 79.070313 208.582031 80.035156 C 211.476563 79.136719 214.746094 75.796875 217.695313 78.25 C 218.808594 78.960938 219.894531 79.710938 220.980469 80.503906 C 220.753906 84.390625 221.609375 89.027344 218.566406 92.097656 C 215.363281 95.554688 210.257813 94.964844 206.019531 94.710938 C 208.300781 92.484375 212.308594 90.972656 212.320313 87.257813 C 212.550781 84.898438 212.320313 80.746094 209.050781 83.199219 C 209.722656 90.597656 201.867188 96.949219 194.992188 93.261719 C 195.003906 87.621094 193.71875 80.515625 199.628906 77.261719 "/>
<path style=" stroke:none;fill-rule:nonzero;fill:rgb(10.984802%,0%,36.863708%);fill-opacity:1;" d="M 204.441406 59.433594 C 207.1875 59.648438 209.949219 59.875 212.683594 60.222656 C 210.3125 62.515625 207.523438 64.296875 204.507813 65.625 C 204.480469 63.5625 204.453125 61.496094 204.441406 59.433594 "/>
<path style=" stroke:none;fill-rule:nonzero;fill:rgb(10.984802%,0%,36.863708%);fill-opacity:1;" d="M 195.621094 39.328125 C 199.535156 38.242188 203.703125 39.007813 207.722656 38.898438 C 206.730469 41.339844 205.660156 43.738281 204.519531 46.097656 C 201.679688 44.996094 198.71875 44.207031 195.648438 44.246094 C 198.476563 46.246094 202.777344 47.410156 203.554688 51.285156 C 204.199219 57.570313 203.664063 63.898438 203.917969 70.195313 C 207.160156 71.230469 211.113281 70.894531 212.671875 67.34375 C 215.550781 61.203125 210.792969 54.878906 205.460938 52.074219 C 206.972656 47.8125 208.273438 43.445313 210.402344 39.4375 C 214.332031 38.070313 218.726563 39.101563 222.828125 38.914063 C 221.769531 41.394531 220.617188 43.820313 219.386719 46.21875 C 216.394531 44.960938 213.230469 43.9375 209.949219 44.488281 C 213.164063 46.433594 217.160156 47.851563 218.835938 51.539063 C 224.007813 59.824219 219.144531 72.582031 209.53125 74.792969 C 204.84375 74.996094 198.890625 74.941406 195.753906 70.851563 C 195.152344 64.808594 195.742188 58.710938 195.40625 52.636719 C 194.066406 51.660156 192.660156 50.761719 191.410156 49.660156 C 192.539063 46.109375 193.878906 42.613281 195.621094 39.328125 "/>
<path style=" stroke:none;fill-rule:nonzero;fill:rgb(10.984802%,0%,36.863708%);fill-opacity:1;" d="M 158.507813 50.910156 C 161.121094 46.660156 164.121094 42.679688 167.058594 38.660156 C 174.402344 40.214844 181.695313 38.445313 189.09375 38.859375 C 188.371094 41.257813 187.617188 43.644531 186.84375 46.03125 C 179.765625 43.699219 172.164063 44.972656 164.835938 44.476563 C 166.628906 46.109375 168.492188 47.960938 171.011719 48.378906 C 174.914063 47.878906 178.570313 45.226563 182.632813 46.230469 C 188.035156 48.550781 188.757813 55.371094 188.113281 60.492188 C 187.269531 67.730469 181.050781 72.851563 174.632813 75.304688 C 177.296875 68.441406 182.578125 60.71875 178.359375 53.347656 C 176.976563 50.105469 173.800781 51.835938 171.320313 52.492188 C 170.585938 59.941406 170.960938 67.421875 170.917969 74.886719 C 168.171875 74.902344 165.449219 74.902344 162.714844 74.914063 C 162.996094 68.078125 161.683594 61.003906 163.855469 54.378906 C 162.019531 53.308594 160.25 52.117188 158.507813 50.910156 "/>
<path style=" stroke:none;fill-rule:nonzero;fill:rgb(10.984802%,0%,36.863708%);fill-opacity:1;" d="M 244.328125 35.105469 C 245.800781 33.363281 247.304688 31.648438 248.832031 29.972656 C 251.835938 32.035156 252.703125 35.386719 252.878906 38.832031 C 257.558594 38.820313 262.246094 38.804688 266.9375 38.859375 C 266.84375 48.710938 267.019531 58.5625 266.898438 68.425781 C 267.046875 72.945313 262.046875 74.59375 258.5625 75.757813 C 258.011719 65.089844 258.5625 54.394531 258.226563 43.699219 C 256.324219 44.703125 254.472656 45.800781 252.652344 46.953125 C 251.902344 45.171875 251.175781 43.390625 250.464844 41.609375 C 249.207031 43.015625 247.960938 44.421875 246.714844 45.84375 C 241.164063 43.324219 234.917969 44.410156 229.046875 44.542969 C 231.78125 46.179688 235.054688 47.332031 236.890625 50.117188 C 237.839844 55.480469 237.222656 61.003906 237.171875 66.429688 C 240.226563 65.546875 242.101563 67.863281 243.964844 69.914063 C 244.621094 68.1875 245.144531 66.417969 245.519531 64.621094 C 244.355469 60.707031 241.136719 57.140625 241.980469 52.828125 C 242.773438 49.246094 246.726563 48.203125 249.421875 46.40625 C 249.957031 50.867188 251.980469 54.945313 252.800781 59.339844 C 253.46875 65.972656 249.355469 73.65625 242.410156 74.941406 C 241.285156 73.558594 240.199219 72.152344 239.140625 70.71875 C 238.109375 72.261719 237.0625 73.800781 236.019531 75.328125 C 233.578125 74.125 230.550781 73.414063 229.074219 70.933594 C 228.417969 65.359375 229.195313 59.742188 228.738281 54.152344 C 228.097656 52.304688 226.097656 51.433594 224.90625 49.984375 C 226.152344 46.230469 227.707031 42.585938 229.046875 38.871094 C 235.386719 38.96875 241.914063 38.042969 248.027344 40.238281 C 246.820313 38.511719 245.5625 36.808594 244.328125 35.105469 "/>
<path style=" stroke:none;fill-rule:nonzero;fill:rgb(94.53125%,20.776367%,0%);fill-opacity:1;" d="M 453.671875 38.886719 C 457.289063 38.898438 460.910156 38.898438 464.542969 38.925781 C 463.722656 41.140625 462.933594 43.363281 462.15625 45.589844 C 459.207031 44.648438 456.152344 44.128906 453.070313 44.261719 C 456.125 46.632813 461.5 47.933594 461.539063 52.625 C 461.714844 58.402344 461.714844 64.191406 461.539063 69.96875 C 461.621094 74.808594 454.730469 76.738281 451.660156 73.441406 C 446.714844 68.816406 445.214844 59.5 451.230469 55.050781 C 455.359375 60.292969 446.929688 66.992188 453.296875 71.296875 C 453.777344 65.199219 453.164063 59.085938 453.539063 52.988281 C 452.105469 52.0625 450.65625 51.164063 449.210938 50.253906 C 450.761719 46.5 452.238281 42.707031 453.671875 38.886719 "/>
<path style=" stroke:none;fill-rule:nonzero;fill:rgb(94.53125%,20.776367%,0%);fill-opacity:1;" d="M 417.496094 38.898438 C 421.316406 38.898438 425.136719 38.898438 428.96875 38.941406 C 428.257813 41.152344 427.535156 43.351563 426.863281 45.574219 C 423.636719 44.542969 420.285156 44.03125 416.90625 44.300781 C 419.386719 46.070313 422.429688 47.195313 424.398438 49.59375 C 425.484375 51.96875 425.40625 54.664063 425.925781 57.183594 C 428.070313 56.859375 430.203125 56.390625 432.375 56.109375 C 434.773438 58.644531 432.09375 61.925781 431.890625 64.792969 C 430.859375 67.152344 432.722656 69.070313 433.890625 70.921875 C 434.464844 64.957031 434.171875 58.964844 434.304688 52.972656 C 432.828125 52.074219 431.367188 51.191406 429.90625 50.304688 C 431.503906 46.726563 432.644531 42.976563 434.304688 39.410156 C 438.070313 38.429688 442.039063 39.007813 445.910156 38.898438 C 445.1875 41.097656 444.492188 43.296875 443.835938 45.507813 C 440.617188 44.542969 437.292969 44.019531 433.957031 44.355469 C 436.636719 46.21875 439.867188 47.492188 441.945313 50.117188 C 442.964844 56.242188 442.277344 62.515625 442.425781 68.695313 C 443.269531 73.882813 435.375 76.964844 432.171875 73.011719 C 427.898438 69.363281 428.285156 63.335938 427.320313 58.308594 C 423.902344 62.074219 426.128906 67.382813 424.910156 71.84375 C 422.75 75.0625 417.441406 76.039063 414.882813 72.78125 C 410.6875 68.265625 408.90625 59.042969 414.976563 55.332031 C 418.03125 58.871094 414.402344 63.148438 414.480469 67.113281 C 415.230469 68.480469 416.089844 69.78125 417.039063 71.015625 C 417.632813 65.035156 417.054688 59.03125 417.363281 53.039063 C 415.902344 52.074219 414.441406 51.125 412.992188 50.160156 C 414.535156 46.421875 416.035156 42.664063 417.496094 38.898438 "/>
<path style=" stroke:none;fill-rule:nonzero;fill:rgb(94.53125%,20.776367%,0%);fill-opacity:1;" d="M 400.449219 59.808594 C 400.003906 63.601563 399.964844 67.433594 400.394531 71.230469 C 403.746094 67.917969 402.941406 63.335938 400.449219 59.808594 "/>
<path style=" stroke:none;fill-rule:nonzero;fill:rgb(94.53125%,20.776367%,0%);fill-opacity:1;" d="M 391.214844 46.753906 C 390.382813 43.65625 393.4375 41.421875 394.683594 38.871094 C 398.625 38.898438 402.550781 38.914063 406.507813 38.953125 C 405.527344 41.246094 404.535156 43.523438 403.570313 45.816406 C 401.722656 45.132813 399.871094 44.433594 398.023438 43.777344 C 400.570313 48.054688 400.128906 53.039063 400.03125 57.796875 C 401.453125 57.035156 402.886719 56.285156 404.335938 55.535156 C 408.222656 61.070313 407.070313 68.9375 401.976563 73.292969 C 398.960938 76.402344 392.300781 74.484375 392.257813 69.859375 C 391.640625 62.167969 393.078125 54.339844 391.214844 46.753906 "/>
<path style=" stroke:none;fill-rule:nonzero;fill:rgb(94.53125%,20.776367%,0%);fill-opacity:1;" d="M 416.007813 35.320313 C 417.777344 32.894531 418.851563 29.316406 421.746094 28.085938 C 428.847656 28.070313 435.953125 28.003906 443.070313 27.988281 C 442.265625 30.039063 441.433594 32.078125 440.589844 34.101563 C 434.386719 31.03125 427.375 32.746094 420.765625 31.824219 C 421.71875 32.964844 422.644531 34.113281 423.566406 35.269531 C 421.050781 35.402344 418.527344 35.402344 416.007813 35.320313 "/>
<path style=" stroke:none;fill-rule:nonzero;fill:rgb(94.53125%,20.776367%,0%);fill-opacity:1;" d="M 386.777344 25.511719 C 390.101563 23.085938 394.175781 19.894531 398.53125 21.664063 C 401.183594 22.320313 400.796875 25.308594 401.359375 27.386719 C 398.371094 27.441406 395.367188 27.335938 392.394531 27.46875 C 394.347656 29.519531 396.976563 31.742188 399.980469 30.253906 C 402.980469 28.042969 404.453125 24.316406 407.523438 22.199219 C 410.230469 21.582031 412.792969 23.058594 415.296875 23.847656 C 410.808594 28.058594 407.335938 35.269531 400.21875 34.894531 C 394.066406 35.296875 390.019531 29.894531 386.777344 25.511719 "/>
<path style=" stroke:none;fill-rule:nonzero;fill:rgb(10.984802%,0%,36.863708%);fill-opacity:1;" d="M 247.933594 118.347656 L 251.695313 119.296875 C 250.90625 122.371094 249.488281 124.71875 247.445313 126.34375 C 245.394531 127.957031 242.898438 128.761719 239.9375 128.761719 C 236.878906 128.761719 234.394531 128.144531 232.476563 126.902344 C 230.5625 125.65625 229.101563 123.855469 228.101563 121.5 C 227.105469 119.140625 226.601563 116.605469 226.601563 113.902344 C 226.601563 110.953125 227.164063 108.378906 228.296875 106.183594 C 229.425781 103.988281 231.03125 102.320313 233.117188 101.175781 C 235.199219 100.035156 237.492188 99.46875 239.996094 99.46875 C 242.839844 99.46875 245.226563 100.1875 247.160156 101.632813 C 249.097656 103.078125 250.445313 105.101563 251.203125 107.71875 L 247.511719 108.589844 C 246.851563 106.527344 245.898438 105.03125 244.644531 104.085938 C 243.394531 103.144531 241.820313 102.675781 239.917969 102.675781 C 237.738281 102.675781 235.921875 103.195313 234.453125 104.238281 C 232.984375 105.285156 231.953125 106.683594 231.367188 108.445313 C 230.773438 110.199219 230.476563 112.015625 230.476563 113.882813 C 230.476563 116.296875 230.824219 118.394531 231.523438 120.195313 C 232.234375 121.988281 233.324219 123.335938 234.808594 124.226563 C 236.296875 125.117188 237.902344 125.558594 239.632813 125.558594 C 241.734375 125.558594 243.511719 124.949219 244.972656 123.742188 C 246.433594 122.53125 247.417969 120.730469 247.933594 118.347656 Z M 264.984375 126.078125 C 263.933594 126.96875 262.925781 127.59375 261.960938 127.964844 C 260.988281 128.328125 259.949219 128.511719 258.839844 128.511719 C 257.007813 128.511719 255.601563 128.066406 254.613281 127.171875 C 253.632813 126.273438 253.140625 125.128906 253.140625 123.738281 C 253.140625 122.917969 253.324219 122.171875 253.699219 121.496094 C 254.066406 120.824219 254.554688 120.28125 255.15625 119.875 C 255.761719 119.464844 256.4375 119.15625 257.195313 118.945313 C 257.746094 118.800781 258.582031 118.65625 259.703125 118.523438 C 261.988281 118.25 263.671875 117.925781 264.746094 117.546875 C 264.757813 117.160156 264.765625 116.914063 264.765625 116.8125 C 264.765625 115.660156 264.496094 114.84375 263.960938 114.378906 C 263.242188 113.734375 262.164063 113.417969 260.742188 113.417969 C 259.414063 113.417969 258.433594 113.648438 257.796875 114.117188 C 257.160156 114.582031 256.695313 115.40625 256.390625 116.59375 L 253.628906 116.210938 C 253.878906 115.03125 254.292969 114.074219 254.867188 113.347656 C 255.441406 112.621094 256.277344 112.058594 257.363281 111.664063 C 258.453125 111.273438 259.714844 111.074219 261.148438 111.074219 C 262.578125 111.074219 263.730469 111.246094 264.617188 111.582031 C 265.507813 111.917969 266.164063 112.335938 266.585938 112.84375 C 267.003906 113.355469 267.296875 113.992188 267.464844 114.769531 C 267.558594 115.253906 267.605469 116.121094 267.605469 117.375 L 267.605469 121.144531 C 267.605469 123.777344 267.664063 125.4375 267.789063 126.128906 C 267.90625 126.828125 268.144531 127.496094 268.5 128.136719 L 265.546875 128.136719 C 265.257813 127.550781 265.0625 126.863281 264.984375 126.078125 Z M 264.746094 119.761719 C 263.71875 120.183594 262.179688 120.539063 260.132813 120.832031 C 258.96875 121 258.144531 121.1875 257.664063 121.398438 C 257.183594 121.605469 256.808594 121.910156 256.550781 122.320313 C 256.285156 122.71875 256.152344 123.164063 256.152344 123.660156 C 256.152344 124.414063 256.441406 125.042969 257.011719 125.546875 C 257.578125 126.042969 258.414063 126.296875 259.515625 126.296875 C 260.605469 126.296875 261.574219 126.0625 262.421875 125.582031 C 263.269531 125.105469 263.894531 124.453125 264.292969 123.625 C 264.597656 122.988281 264.746094 122.046875 264.746094 120.800781 Z M 271.992188 128.214844 L 271.992188 111.535156 L 274.515625 111.535156 L 274.515625 113.871094 C 275.039063 113.058594 275.738281 112.398438 276.605469 111.90625 C 277.476563 111.40625 278.46875 111.15625 279.578125 111.15625 C 280.808594 111.15625 281.824219 111.410156 282.613281 111.925781 C 283.40625 112.441406 283.964844 113.15625 284.285156 114.078125 C 285.609375 112.128906 287.324219 111.15625 289.4375 111.15625 C 291.09375 111.15625 292.363281 111.617188 293.253906 112.53125 C 294.144531 113.449219 294.589844 114.859375 294.589844 116.761719 L 294.589844 128.214844 L 291.777344 128.214844 L 291.777344 117.707031 C 291.777344 116.574219 291.6875 115.761719 291.507813 115.261719 C 291.320313 114.769531 290.984375 114.367188 290.507813 114.058594 C 290.027344 113.761719 289.457031 113.605469 288.808594 113.605469 C 287.636719 113.605469 286.664063 113.996094 285.886719 114.777344 C 285.117188 115.554688 284.722656 116.804688 284.722656 118.519531 L 284.722656 128.214844 L 281.898438 128.214844 L 281.898438 117.378906 C 281.898438 116.117188 281.667969 115.175781 281.207031 114.546875 C 280.746094 113.921875 279.996094 113.605469 278.945313 113.605469 C 278.152344 113.605469 277.417969 113.8125 276.742188 114.238281 C 276.066406 114.65625 275.570313 115.265625 275.273438 116.070313 C 274.96875 116.878906 274.816406 118.042969 274.816406 119.5625 L 274.816406 128.214844 Z M 301.3125 128.214844 L 298.691406 128.214844 L 298.691406 105.1875 L 301.519531 105.1875 L 301.519531 113.402344 C 302.714844 111.90625 304.234375 111.15625 306.085938 111.15625 C 307.113281 111.15625 308.085938 111.363281 309.003906 111.777344 C 309.917969 112.191406 310.667969 112.773438 311.265625 113.519531 C 311.855469 114.269531 312.320313 115.171875 312.652344 116.230469 C 312.992188 117.289063 313.15625 118.417969 313.15625 119.621094 C 313.15625 122.484375 312.449219 124.691406 311.035156 126.253906 C 309.625 127.8125 307.925781 128.589844 305.945313 128.589844 C 303.976563 128.589844 302.433594 127.769531 301.3125 126.125 Z M 301.28125 119.75 C 301.28125 121.75 301.554688 123.191406 302.097656 124.082031 C 302.988281 125.539063 304.191406 126.269531 305.710938 126.269531 C 306.949219 126.269531 308.015625 125.730469 308.914063 124.65625 C 309.816406 123.582031 310.269531 121.984375 310.269531 119.855469 C 310.269531 117.679688 309.832031 116.070313 308.96875 115.035156 C 308.105469 114 307.0625 113.480469 305.839844 113.480469 C 304.601563 113.480469 303.535156 114.019531 302.632813 115.089844 C 301.730469 116.160156 301.28125 117.71875 301.28125 119.75 Z M 316.171875 120.03125 C 316.171875 116.941406 317.03125 114.652344 318.75 113.167969 C 320.183594 111.933594 321.929688 111.3125 323.992188 111.3125 C 326.289063 111.3125 328.164063 112.0625 329.617188 113.570313 C 331.074219 115.070313 331.800781 117.144531 331.800781 119.792969 C 331.800781 121.945313 331.480469 123.632813 330.835938 124.859375 C 330.191406 126.09375 329.253906 127.046875 328.027344 127.730469 C 326.792969 128.410156 325.453125 128.746094 323.992188 128.746094 C 321.660156 128.746094 319.773438 128 318.332031 126.5 C 316.890625 125.003906 316.171875 122.847656 316.171875 120.03125 Z M 319.078125 120.03125 C 319.078125 122.167969 319.542969 123.765625 320.476563 124.828125 C 321.410156 125.894531 322.585938 126.425781 323.992188 126.425781 C 325.398438 126.425781 326.566406 125.890625 327.5 124.824219 C 328.425781 123.757813 328.894531 122.125 328.894531 119.9375 C 328.894531 117.875 328.425781 116.308594 327.488281 115.246094 C 326.550781 114.1875 325.386719 113.65625 323.992188 113.65625 C 322.585938 113.65625 321.410156 114.1875 320.476563 115.242188 C 319.542969 116.296875 319.078125 117.894531 319.078125 120.03125 Z M 346.882813 128.214844 L 346.882813 126.109375 C 345.824219 127.765625 344.269531 128.589844 342.21875 128.589844 C 340.886719 128.589844 339.664063 128.226563 338.550781 127.492188 C 337.4375 126.761719 336.570313 125.738281 335.957031 124.417969 C 335.34375 123.105469 335.039063 121.597656 335.039063 119.886719 C 335.039063 118.226563 335.316406 116.714844 335.871094 115.359375 C 336.425781 114 337.257813 112.960938 338.367188 112.242188 C 339.476563 111.519531 340.722656 111.15625 342.09375 111.15625 C 343.097656 111.15625 343.992188 111.371094 344.773438 111.792969 C 345.5625 112.214844 346.199219 112.769531 346.695313 113.449219 L 346.695313 105.1875 L 349.503906 105.1875 L 349.503906 128.214844 Z M 337.945313 119.886719 C 337.945313 122.027344 338.394531 123.625 339.296875 124.679688 C 340.195313 125.738281 341.257813 126.269531 342.484375 126.269531 C 343.71875 126.269531 344.769531 125.757813 345.632813 124.75 C 346.496094 123.742188 346.929688 122.199219 346.929688 120.125 C 346.929688 117.839844 346.488281 116.167969 345.609375 115.101563 C 344.730469 114.027344 343.648438 113.496094 342.355469 113.496094 C 341.101563 113.496094 340.050781 114.011719 339.210938 115.035156 C 338.367188 116.058594 337.945313 117.679688 337.945313 119.886719 Z M 353.414063 108.441406 L 353.414063 105.1875 L 356.246094 105.1875 L 356.246094 108.441406 Z M 353.414063 128.214844 L 353.414063 111.535156 L 356.246094 111.535156 L 356.246094 128.214844 Z M 370.726563 126.078125 C 369.675781 126.96875 368.664063 127.59375 367.699219 127.964844 C 366.730469 128.328125 365.691406 128.511719 364.578125 128.511719 C 362.746094 128.511719 361.34375 128.066406 360.355469 127.171875 C 359.375 126.277344 358.882813 125.128906 358.882813 123.738281 C 358.882813 122.917969 359.0625 122.171875 359.4375 121.5 C 359.808594 120.824219 360.296875 120.28125 360.898438 119.875 C 361.503906 119.46875 362.179688 119.15625 362.933594 118.945313 C 363.488281 118.800781 364.324219 118.65625 365.445313 118.523438 C 367.726563 118.25 369.410156 117.929688 370.488281 117.546875 C 370.5 117.160156 370.503906 116.914063 370.503906 116.8125 C 370.503906 115.660156 370.238281 114.84375 369.699219 114.378906 C 368.980469 113.734375 367.902344 113.417969 366.484375 113.417969 C 365.152344 113.417969 364.171875 113.648438 363.535156 114.117188 C 362.902344 114.582031 362.4375 115.40625 362.128906 116.59375 L 359.371094 116.214844 C 359.621094 115.03125 360.035156 114.074219 360.609375 113.347656 C 361.183594 112.621094 362.019531 112.058594 363.105469 111.664063 C 364.195313 111.273438 365.453125 111.078125 366.890625 111.078125 C 368.316406 111.078125 369.46875 111.246094 370.359375 111.582031 C 371.25 111.917969 371.902344 112.335938 372.328125 112.84375 C 372.746094 113.355469 373.035156 113.992188 373.207031 114.769531 C 373.296875 115.253906 373.347656 116.121094 373.347656 117.375 L 373.347656 121.144531 C 373.347656 123.777344 373.40625 125.4375 373.527344 126.128906 C 373.644531 126.828125 373.886719 127.5 374.242188 128.136719 L 371.289063 128.136719 C 370.996094 127.550781 370.804688 126.863281 370.726563 126.078125 Z M 370.488281 119.761719 C 369.460938 120.183594 367.921875 120.539063 365.871094 120.835938 C 364.710938 121 363.882813 121.1875 363.40625 121.398438 C 362.925781 121.605469 362.550781 121.910156 362.289063 122.320313 C 362.027344 122.722656 361.894531 123.164063 361.894531 123.660156 C 361.894531 124.414063 362.183594 125.042969 362.753906 125.546875 C 363.320313 126.042969 364.15625 126.296875 365.257813 126.296875 C 366.34375 126.296875 367.316406 126.0625 368.160156 125.582031 C 369.007813 125.105469 369.636719 124.453125 370.03125 123.628906 C 370.339844 122.988281 370.488281 122.046875 370.488281 120.800781 L 370.488281 119.761719 "/>
<path style=" stroke:none;fill-rule:nonzero;fill:rgb(80.076599%,59.959412%,19.993591%);fill-opacity:1;" d="M 379.992188 128.152344 L 389.996094 100.804688 L 393.789063 100.804688 L 404.402344 128.152344 L 400.476563 128.152344 L 397.460938 119.863281 L 386.480469 119.863281 L 383.652344 128.152344 Z M 387.496094 116.921875 L 396.378906 116.921875 L 393.660156 109.339844 C 392.839844 107.035156 392.222656 105.132813 391.789063 103.632813 C 391.433594 105.414063 390.953125 107.164063 390.351563 108.894531 L 387.496094 116.921875 "/>
<path style=" stroke:none;fill-rule:nonzero;fill:rgb(80.076599%,59.959412%,19.993591%);fill-opacity:1;" d="M 405.722656 128.402344 L 405.722656 111.707031 L 408.261719 111.707031 L 408.261719 114.078125 C 409.484375 112.257813 411.253906 111.351563 413.5625 111.351563 C 414.570313 111.351563 415.492188 111.535156 416.335938 111.894531 C 417.179688 112.253906 417.8125 112.730469 418.230469 113.316406 C 418.648438 113.898438 418.941406 114.597656 419.109375 115.402344 C 419.210938 115.925781 419.261719 116.84375 419.261719 118.152344 L 419.261719 128.402344 L 416.433594 128.402344 L 416.433594 118.257813 C 416.433594 117.105469 416.324219 116.242188 416.105469 115.671875 C 415.886719 115.105469 415.492188 114.652344 414.9375 114.308594 C 414.378906 113.96875 413.71875 113.796875 412.96875 113.796875 C 411.769531 113.796875 410.734375 114.179688 409.859375 114.945313 C 408.984375 115.707031 408.550781 117.160156 408.550781 119.292969 L 408.550781 128.402344 L 405.722656 128.402344 "/>
<path style=" stroke:none;fill-rule:nonzero;fill:rgb(80.076599%,59.959412%,19.993591%);fill-opacity:1;" d="M 424.085938 130.03125 L 426.816406 130.417969 C 426.929688 131.265625 427.253906 131.882813 427.777344 132.273438 C 428.480469 132.792969 429.441406 133.054688 430.65625 133.054688 C 431.964844 133.054688 432.976563 132.792969 433.691406 132.273438 C 434.402344 131.753906 434.886719 131.019531 435.140625 130.082031 C 435.285156 129.507813 435.355469 128.300781 435.34375 126.460938 C 434.105469 127.921875 432.566406 128.648438 430.722656 128.648438 C 428.425781 128.648438 426.644531 127.824219 425.390625 126.167969 C 424.132813 124.515625 423.503906 122.53125 423.503906 120.222656 C 423.503906 118.628906 423.796875 117.160156 424.367188 115.816406 C 424.941406 114.46875 425.777344 113.433594 426.871094 112.699219 C 427.964844 111.964844 429.253906 111.601563 430.730469 111.601563 C 432.699219 111.601563 434.324219 112.40625 435.601563 114.015625 L 435.601563 111.957031 L 438.203125 111.957031 L 438.203125 126.371094 C 438.203125 128.972656 437.941406 130.808594 437.410156 131.894531 C 436.886719 132.976563 436.046875 133.835938 434.902344 134.460938 C 433.753906 135.089844 432.347656 135.40625 430.671875 135.40625 C 428.683594 135.40625 427.082031 134.960938 425.859375 134.066406 C 424.632813 133.175781 424.039063 131.828125 424.085938 130.03125 Z M 426.398438 120.019531 C 426.398438 122.199219 426.835938 123.792969 427.703125 124.796875 C 428.578125 125.796875 429.664063 126.300781 430.972656 126.300781 C 432.277344 126.300781 433.363281 125.800781 434.25 124.804688 C 435.128906 123.808594 435.566406 122.242188 435.566406 120.109375 C 435.566406 118.070313 435.113281 116.535156 434.207031 115.5 C 433.300781 114.464844 432.207031 113.949219 430.929688 113.949219 C 429.671875 113.949219 428.605469 114.457031 427.71875 115.476563 C 426.839844 116.496094 426.398438 118.007813 426.398438 120.019531 "/>
<path style=" stroke:none;fill-rule:nonzero;fill:rgb(80.076599%,59.959412%,19.993591%);fill-opacity:1;" d="M 442.257813 128.402344 L 442.257813 105.371094 L 445.089844 105.371094 L 445.089844 118.488281 L 451.777344 111.707031 L 455.433594 111.707031 L 449.066406 117.910156 L 456.078125 128.402344 L 452.59375 128.402344 L 447.050781 119.871094 L 445.089844 121.78125 L 445.089844 128.402344 L 442.257813 128.402344 "/>
<path style=" stroke:none;fill-rule:nonzero;fill:rgb(80.076599%,59.959412%,19.993591%);fill-opacity:1;" d="M 457.019531 120.054688 C 457.019531 116.972656 457.878906 114.6875 459.601563 113.203125 C 461.03125 111.96875 462.785156 111.351563 464.847656 111.351563 C 467.136719 111.351563 469.015625 112.101563 470.472656 113.605469 C 471.925781 115.101563 472.652344 117.175781 472.652344 119.820313 C 472.652344 121.964844 472.332031 123.648438 471.6875 124.875 C 471.046875 126.101563 470.109375 127.054688 468.875 127.738281 C 467.648438 128.417969 466.300781 128.757813 464.847656 128.757813 C 462.511719 128.757813 460.621094 128.011719 459.179688 126.515625 C 457.738281 125.019531 457.019531 122.863281 457.019531 120.054688 Z M 459.914063 120.058594 C 459.914063 122.195313 460.382813 123.792969 461.316406 124.847656 C 462.253906 125.910156 463.425781 126.441406 464.847656 126.441406 C 466.253906 126.441406 467.421875 125.910156 468.359375 124.84375 C 469.292969 123.777344 469.757813 122.152344 469.757813 119.96875 C 469.757813 117.910156 469.285156 116.347656 468.347656 115.292969 C 467.410156 114.230469 466.242188 113.703125 464.847656 113.703125 C 463.425781 113.703125 462.253906 114.226563 461.316406 115.28125 C 460.382813 116.339844 459.914063 117.929688 459.914063 120.058594 "/>
<path style=" stroke:none;fill-rule:nonzero;fill:rgb(80.076599%,59.959412%,19.993591%);fill-opacity:1;" d="M 475.195313 128.402344 L 475.195313 111.707031 L 477.738281 111.707031 L 477.738281 114.265625 C 478.386719 113.078125 478.984375 112.296875 479.539063 111.921875 C 480.089844 111.539063 480.695313 111.351563 481.355469 111.351563 C 482.308594 111.351563 483.28125 111.652344 484.265625 112.25 L 483.257813 114.859375 C 482.574219 114.472656 481.886719 114.28125 481.199219 114.28125 C 480.585938 114.28125 480.03125 114.46875 479.542969 114.839844 C 479.054688 115.207031 478.707031 115.722656 478.496094 116.382813 C 478.183594 117.386719 478.027344 118.484375 478.027344 119.679688 L 478.027344 128.402344 L 475.195313 128.402344 "/>
</g>
</svg>
